<svg width="49" height="64" viewBox="0 0 49 64" fill="none" xmlns="http://www.w3.org/2000/svg">
<path d="M39.1792 15.8174C38.8407 19.1622 38.597 21.9517 38.2584 24.7278C38.0688 26.2445 37.4459 27.558 35.7397 27.9236C34.3178 28.2215 32.8417 27.4361 31.9886 25.6892C31.1626 24.0101 30.5667 22.209 29.9438 20.4351C28.1428 15.3434 25.3667 10.8205 21.9272 6.69029C20.8574 5.40383 19.8011 4.11737 18.5688 2.62779C18.298 3.53508 18.0813 4.26633 17.8647 4.99758C15.5626 12.9465 14.7772 21.0445 15.1292 29.2913C15.2376 31.959 14.9261 34.6809 14.547 37.3351C14.3032 39.0413 13.6667 40.7747 11.6084 41.1538C10.1324 41.4247 8.66987 40.2059 7.77612 37.9851C7.18029 36.4955 6.78758 34.9111 6.24591 33.3945C5.94799 32.5413 5.51466 31.7424 5.12195 30.8486C0.15216 36.8882 3.94383 56.808 10.5657 59.7195C10.5928 54.384 13.0438 49.9695 15.9417 45.7986C20.0449 39.8945 22.2792 33.3674 23.024 26.2715C23.0782 25.7434 23.1865 25.2017 23.2813 24.6872C23.7417 22.2767 24.7303 21.884 26.5313 23.6715C27.6959 24.8226 28.7251 26.2445 29.4022 27.7205C32.7605 34.9517 34.1553 42.4538 31.8803 50.3351C31.623 51.2017 31.0407 52.4205 31.474 53.0434C32.2324 53.9913 33.424 52.3663 33.6813 51.7028C34.3584 49.9559 34.7782 48.1278 35.3199 46.3267C35.6584 45.2028 35.8615 43.9705 36.4709 42.9955C36.9449 42.2372 37.974 41.3028 38.6782 41.3705C39.4095 41.4382 40.4251 42.4809 40.6688 43.2934C42.4563 49.3465 41.6167 54.8851 36.0376 59.584C33.1667 62.008 29.6324 62.7934 26.0167 63.2674C21.9407 63.7955 17.9188 63.958 13.8292 63.0236C11.8792 62.5767 9.848 62.2788 8.66987 61.8455C7.49175 61.4122 6.48966 60.532 6.0157 59.8007C-0.0103402 50.4976 -0.998881 40.6934 3.23966 30.4153C4.11987 28.2892 5.81258 27.8424 7.30216 29.6028C8.39904 30.9028 9.02195 32.6497 9.71258 34.2747C10.1865 35.4122 10.4438 36.6445 10.7688 37.8361C11.1751 39.3257 11.7709 39.5559 12.1772 39.2986C12.6782 39.1497 12.9761 37.3486 12.922 35.5476C12.8272 32.582 12.8813 29.6028 12.5699 26.6642C11.6626 18.0517 13.7615 9.98092 16.822 2.07258C17.5803 0.0954981 18.447 -0.148252 20.072 1.233C26.7345 6.87987 31.5417 13.759 33.722 22.3174C34.0605 23.6174 34.1688 25.0799 35.8209 26.109C35.9834 24.8497 36.1188 23.807 36.2678 22.7778C36.647 20.232 36.8907 17.659 37.4595 15.1674C37.8115 13.6642 38.8542 13.3528 39.9511 14.4361C41.3865 15.858 42.7949 17.4288 43.7292 19.2028C47.2095 25.8382 48.4011 33.0424 48.374 40.4632C48.347 46.2997 47.2636 51.9601 44.5824 57.1736C43.6751 58.9476 42.1449 60.4101 40.8449 61.9674C40.2626 62.6715 38.9355 62.4413 39.5449 60.8705C39.599 60.7351 39.6667 60.5726 39.7615 60.4372C44.799 53.6799 45.3001 45.7715 45.3678 37.809C45.422 31.458 44.5011 25.2288 41.5355 19.4872C40.9126 18.309 40.1136 17.2528 39.1792 15.8174ZM38.448 43.5913C37.649 46.2455 37.0261 48.4392 36.3084 50.6195C35.7397 52.3392 34.873 53.8965 33.1667 54.7497C31.1897 55.7517 29.2667 54.6413 29.1584 52.4205C29.1178 51.5132 29.1584 50.5788 29.3345 49.6986C30.7157 42.6299 30.0657 35.7778 27.3032 29.1288C26.8292 27.9913 26.1386 26.9486 25.448 25.7028C25.2042 26.109 25.0282 27.5851 25.0011 28.2215C24.8251 33.0424 24.2834 37.809 21.7511 42.0611C20.2345 44.5934 18.5282 47.0174 16.8761 49.482C15.048 52.2309 13.423 55.0747 12.8272 58.3788C12.4209 60.6403 12.597 60.7486 14.7636 61.3038C19.3542 62.4684 23.8501 61.7236 28.3324 60.8299C33.4376 59.8142 36.6199 56.4559 38.5157 51.8247C39.5584 49.2924 39.2605 46.6653 38.448 43.5913Z" fill="#CD4631"/>
</svg>
