<svg width="20" height="20" viewBox="0 0 20 20" fill="none" xmlns="http://www.w3.org/2000/svg">
<path d="M16.5334 4.86663C16.5334 5.63983 15.9066 6.26663 15.1334 6.26663C14.3602 6.26663 13.7334 5.63983 13.7334 4.86663C13.7334 4.09343 14.3602 3.46663 15.1334 3.46663C15.9066 3.46663 16.5334 4.09343 16.5334 4.86663Z" fill="black"/>
<path fill-rule="evenodd" clip-rule="evenodd" d="M10.0001 14.6666C12.5774 14.6666 14.6667 12.5773 14.6667 9.99996C14.6667 7.42263 12.5774 5.33329 10.0001 5.33329C7.42275 5.33329 5.33342 7.42263 5.33342 9.99996C5.33342 12.5773 7.42275 14.6666 10.0001 14.6666ZM10.0001 12.8C11.5465 12.8 12.8001 11.5464 12.8001 9.99996C12.8001 8.45356 11.5465 7.19996 10.0001 7.19996C8.45368 7.19996 7.20008 8.45356 7.20008 9.99996C7.20008 11.5464 8.45368 12.8 10.0001 12.8Z" fill="black"/>
<path fill-rule="evenodd" clip-rule="evenodd" d="M0.666748 9.62663C0.666748 6.49033 0.666748 4.92218 1.27711 3.72428C1.814 2.67057 2.67069 1.81388 3.7244 1.27699C4.92231 0.666626 6.49045 0.666626 9.62675 0.666626H10.3734C13.5097 0.666626 15.0779 0.666626 16.2758 1.27699C17.3295 1.81388 18.1862 2.67057 18.7231 3.72428C19.3334 4.92218 19.3334 6.49033 19.3334 9.62663V10.3733C19.3334 13.5096 19.3334 15.0777 18.7231 16.2756C18.1862 17.3293 17.3295 18.186 16.2758 18.7229C15.0779 19.3333 13.5097 19.3333 10.3734 19.3333H9.62675C6.49045 19.3333 4.92231 19.3333 3.7244 18.7229C2.67069 18.186 1.814 17.3293 1.27711 16.2756C0.666748 15.0777 0.666748 13.5096 0.666748 10.3733V9.62663ZM9.62675 2.53329H10.3734C11.9724 2.53329 13.0593 2.53474 13.8995 2.60339C14.7179 2.67025 15.1364 2.79145 15.4283 2.9402C16.1308 3.29813 16.7019 3.86926 17.0598 4.57173C17.2086 4.86367 17.3298 5.28219 17.3967 6.10056C17.4653 6.94073 17.4667 8.02768 17.4667 9.62663V10.3733C17.4667 11.9722 17.4653 13.0592 17.3967 13.8994C17.3298 14.7177 17.2086 15.1362 17.0598 15.4282C16.7019 16.1307 16.1308 16.7018 15.4283 17.0597C15.1364 17.2085 14.7179 17.3297 13.8995 17.3965C13.0593 17.4652 11.9724 17.4666 10.3734 17.4666H9.62675C8.0278 17.4666 6.94085 17.4652 6.10069 17.3965C5.28231 17.3297 4.8638 17.2085 4.57185 17.0597C3.86938 16.7018 3.29825 16.1307 2.94032 15.4282C2.79157 15.1362 2.67037 14.7177 2.60351 13.8994C2.53487 13.0592 2.53341 11.9722 2.53341 10.3733V9.62663C2.53341 8.02768 2.53487 6.94073 2.60351 6.10056C2.67037 5.28219 2.79157 4.86367 2.94032 4.57173C3.29825 3.86926 3.86938 3.29813 4.57185 2.9402C4.8638 2.79145 5.28231 2.67025 6.10069 2.60339C6.94085 2.53474 8.0278 2.53329 9.62675 2.53329Z" fill="black"/>
</svg>
