<svg width="81" height="22" viewBox="0 0 81 22" fill="none" xmlns="http://www.w3.org/2000/svg">
<path d="M11.2735 0C9.14271 0 7.05975 0.645131 5.28804 1.8538C3.5164 3.06253 2.13553 4.78051 1.32006 6.79046C0.504657 8.80048 0.29131 11.0122 0.707036 13.146C1.1227 15.2798 2.14876 17.2398 3.65548 18.7782C5.16219 20.3165 7.08188 21.3642 9.17173 21.7886C11.2616 22.2131 13.4278 21.9953 15.3963 21.1627C17.365 20.3301 19.0476 18.9202 20.2314 17.1113C21.4152 15.3023 22.047 13.1756 22.047 11C22.047 8.0826 20.912 5.28473 18.8916 3.22185C16.8711 1.1589 14.1309 0 11.2735 0ZM16.2174 15.8635C16.1716 15.9413 16.1111 16.0089 16.0394 16.0626C15.9677 16.1162 15.8863 16.1547 15.7999 16.176C15.7135 16.1972 15.6238 16.2007 15.5361 16.1862C15.4484 16.1718 15.3643 16.1397 15.2888 16.0918C12.761 14.5116 9.57968 14.1604 5.83088 15.0295C5.74558 15.0503 5.65714 15.0536 5.57059 15.0392C5.4841 15.0248 5.40118 14.9929 5.32684 14.9456C5.25245 14.8982 5.18801 14.8363 5.13725 14.7633C5.08648 14.6903 5.0505 14.6077 5.03126 14.5204C5.01077 14.4328 5.00751 14.3419 5.02148 14.2529C5.03552 14.164 5.06655 14.0788 5.11287 14.0021C5.15918 13.9254 5.21992 13.8589 5.29143 13.8062C5.363 13.7535 5.44404 13.7158 5.52991 13.6951C9.63126 12.7382 13.1565 13.1508 15.9939 14.9242C16.1453 15.0187 16.2539 15.1706 16.2957 15.3467C16.3377 15.5228 16.3095 15.7086 16.2174 15.8635ZM17.533 12.8699C17.4129 13.0586 17.2263 13.193 17.0119 13.2453C16.7974 13.2975 16.5716 13.2637 16.3808 13.1508C13.1116 11.2888 9.2522 10.8279 5.65031 11.8691C5.53825 11.9329 5.41358 11.9703 5.28554 11.9785C5.15743 11.9867 5.02919 11.9655 4.91017 11.9165C4.79115 11.8675 4.68442 11.792 4.59774 11.6954C4.51106 11.5988 4.44663 11.4836 4.40921 11.3583C4.37179 11.2329 4.36233 11.1007 4.38151 10.9711C4.40068 10.8415 4.448 10.7181 4.52002 10.6096C4.59203 10.5012 4.68693 10.4106 4.79767 10.3444C4.90848 10.2783 5.03233 10.2383 5.16019 10.2275C7.17063 9.63655 9.27645 9.46181 11.354 9.71363C13.4315 9.96538 15.4388 10.6385 17.2579 11.6936C17.4427 11.8162 17.5742 12.0067 17.6254 12.2256C17.6767 12.4446 17.6436 12.6752 17.533 12.8699ZM17.6448 9.75339C14.2055 7.64642 8.45334 7.45328 5.13443 8.48043C4.87903 8.55964 4.60325 8.53194 4.36784 8.40349C4.13244 8.27509 3.95663 8.05645 3.8791 7.79567C3.80157 7.53494 3.82865 7.25337 3.95444 7.01298C4.08016 6.77265 4.29433 6.59313 4.54973 6.51399C8.35876 5.3376 14.6784 5.56585 18.6766 7.98003C18.8821 8.13024 19.0247 8.35391 19.0761 8.60663C19.1275 8.85929 19.0838 9.12246 18.9537 9.34381C18.8237 9.5651 18.6168 9.72828 18.3743 9.8009C18.1317 9.87359 17.8713 9.85035 17.6448 9.73584V9.75339Z" fill="#1ED760"/>
<path d="M33.288 9.25808C31.2241 8.74889 30.8543 8.38024 30.8543 7.66036C30.8543 6.94047 31.4992 6.48396 32.4626 6.48396C33.4948 6.52347 34.4863 6.90917 35.2823 7.58135C35.2986 7.5898 35.3162 7.59419 35.3343 7.59419C35.3519 7.59419 35.3701 7.5898 35.3857 7.58135C35.4196 7.5747 35.4503 7.55604 35.4716 7.52867L36.4863 6.07135C36.5064 6.04508 36.5177 6.01261 36.5177 5.97917C36.5177 5.94573 36.5064 5.91326 36.4863 5.88699C35.3676 4.95202 33.9592 4.45407 32.5139 4.48234C30.2871 4.48234 28.7309 5.85187 28.7309 7.80082C28.7309 9.89895 30.0721 10.6452 32.3936 11.2158C34.371 11.6811 34.7063 12.0937 34.7063 12.7697C34.7063 13.4456 34.0269 14.0163 32.9865 14.0163C31.7568 14.0076 30.5785 13.51 29.7023 12.6292C29.6691 12.6178 29.6328 12.6178 29.5989 12.6292C29.5638 12.6379 29.5312 12.6561 29.5043 12.6819L28.3523 14.0426C28.3285 14.0687 28.3147 14.1033 28.3147 14.1392C28.3147 14.1751 28.3285 14.2097 28.3523 14.2357C29.6039 15.3805 31.2291 16.0066 32.9094 15.9915C35.308 15.9915 36.8649 14.6483 36.8649 12.5766C36.8304 10.8471 35.7981 9.88139 33.288 9.25808Z" fill="black"/>
<path d="M42.2644 7.17646C41.7674 7.17329 41.2767 7.28645 40.8298 7.50709C40.3823 7.72773 39.9905 8.0501 39.6847 8.44942V7.48372C39.6828 7.44803 39.6671 7.41452 39.6414 7.39006C39.6157 7.36559 39.5819 7.35197 39.5474 7.35204H37.6816C37.6465 7.35197 37.6126 7.36559 37.5869 7.39006C37.5613 7.41452 37.5462 7.44803 37.5437 7.48372V18.194C37.5437 18.2313 37.5581 18.267 37.5838 18.2934C37.6101 18.3197 37.6446 18.3345 37.6816 18.3345H39.5299C39.5662 18.3345 39.6013 18.3197 39.627 18.2934C39.6527 18.267 39.6678 18.2313 39.6678 18.194V14.8317C39.9837 15.2143 40.3791 15.5206 40.8254 15.7285C41.271 15.9365 41.7567 16.0409 42.2469 16.0344C44.1817 16.0344 46.1421 14.5157 46.1421 11.601C46.1421 8.68645 44.1986 7.17646 42.2644 7.17646ZM43.9836 11.5659C44.0162 11.8799 43.9842 12.1972 43.8902 12.4979C43.7962 12.7986 43.642 13.0761 43.4377 13.3129C43.2327 13.5497 42.9827 13.7405 42.7025 13.8736C42.4217 14.0066 42.1178 14.0787 41.8088 14.0855C41.4985 14.0757 41.1939 14.0019 40.9125 13.8686C40.6311 13.7352 40.3791 13.5451 40.1723 13.3097C39.9649 13.0742 39.8063 12.7983 39.706 12.4986C39.6064 12.1989 39.5669 11.8816 39.5901 11.5659C39.5681 11.2509 39.6082 10.9346 39.7091 10.6359C39.8094 10.3373 39.968 10.0624 40.1754 9.82792C40.3823 9.59347 40.6342 9.40414 40.9144 9.27129C41.1952 9.13851 41.4991 9.06498 41.8088 9.05517C42.1215 9.06066 42.4299 9.13263 42.7138 9.26651C42.9977 9.40039 43.2516 9.59321 43.4584 9.8327C43.6658 10.0723 43.8219 10.3532 43.9165 10.6577C44.0112 10.9621 44.0431 11.2834 44.0093 11.601L43.9836 11.5659Z" fill="black"/>
<path d="M51.1804 7.17695C50.3212 7.19264 49.4857 7.46776 48.7793 7.96758C48.073 8.46747 47.5277 9.16967 47.2118 9.98567C46.8959 10.8016 46.8239 11.6949 47.0044 12.5526C47.1855 13.4104 47.6111 14.1943 48.2272 14.8056C48.8439 15.4167 49.6242 15.8278 50.4691 15.9869C51.3139 16.146 52.1864 16.046 52.9761 15.6995C53.7652 15.3531 54.4371 14.7756 54.9052 14.04C55.3741 13.3045 55.6185 12.4438 55.6085 11.5664C55.6003 10.9812 55.48 10.4032 55.2531 9.86566C55.0256 9.32814 54.6972 8.84162 54.286 8.43391C53.8749 8.02613 53.3885 7.70524 52.8558 7.48958C52.323 7.27391 51.7533 7.16766 51.1804 7.17695ZM51.1804 14.1387C50.8627 14.1344 50.5493 14.0646 50.2585 13.9335C49.9683 13.8024 49.7063 13.6126 49.4895 13.3755C49.2726 13.1386 49.1053 12.8593 48.9968 12.5544C48.8884 12.2495 48.8414 11.9254 48.8589 11.6015C48.8389 11.2821 48.8834 10.9619 48.9887 10.6607C49.0946 10.3595 49.2601 10.0835 49.4744 9.84998C49.6888 9.61637 49.9476 9.43007 50.2347 9.30252C50.5224 9.17496 50.8326 9.10886 51.146 9.10834C51.4644 9.11035 51.7796 9.17806 52.0717 9.30755C52.3644 9.43698 52.6282 9.62547 52.8476 9.8616C53.0663 10.0978 53.2368 10.3768 53.3478 10.6818C53.4587 10.9868 53.5082 11.3116 53.4932 11.6366C53.5132 11.9587 53.4681 12.2815 53.3609 12.585C53.2537 12.8885 53.0864 13.1662 52.8695 13.4008C52.6521 13.6356 52.3907 13.8221 52.0999 13.949C51.8091 14.076 51.4963 14.1405 51.1804 14.1387Z" fill="black"/>
<path d="M60.9311 7.35258H58.8935V5.22811C58.8935 5.19235 58.8803 5.15788 58.8559 5.13174C58.8321 5.10566 58.7995 5.08991 58.7644 5.08765H56.9155C56.8791 5.08765 56.844 5.10243 56.8183 5.12877C56.7926 5.1551 56.7782 5.19086 56.7782 5.22811V7.35258H55.8669C55.85 7.35258 55.8331 7.356 55.8174 7.36265C55.8017 7.36923 55.7873 7.37898 55.7754 7.39118C55.7635 7.40338 55.7541 7.4179 55.7478 7.43391C55.7409 7.44986 55.7378 7.46703 55.7378 7.48426V9.10839C55.7378 9.14415 55.7509 9.17862 55.7748 9.20476C55.7992 9.23084 55.8318 9.24659 55.8669 9.24885H56.7268V13.4452C56.7268 15.1395 57.5861 15.9999 59.1856 15.9999C59.7872 16.0172 60.382 15.8653 60.9054 15.5609C60.9261 15.5507 60.9442 15.5345 60.9561 15.5143C60.9687 15.494 60.9743 15.4705 60.9743 15.4468V13.9017C60.9743 13.8778 60.9693 13.8541 60.9586 13.8327C60.948 13.8114 60.9329 13.7928 60.9141 13.7788C60.8935 13.7655 60.8696 13.7585 60.8452 13.7585C60.8208 13.7585 60.797 13.7655 60.7763 13.7788C60.4403 13.9524 60.0693 14.0427 59.6926 14.0421C59.0997 14.0421 58.8333 13.77 58.8333 13.1642V9.24885H60.8709C60.9072 9.24885 60.9424 9.23407 60.9681 9.20773C60.9938 9.18139 61.0082 9.14563 61.0082 9.10839V7.48426C61.0094 7.45702 61.0025 7.4301 60.9887 7.40667C60.9749 7.3833 60.9549 7.36452 60.9311 7.35258Z" fill="black"/>
<path d="M68.0237 7.36149V7.09811C68.0237 6.32562 68.3076 5.98324 68.9526 5.98324C69.3111 5.98744 69.6665 6.0558 70.0018 6.18516C70.0206 6.19387 70.0413 6.19839 70.0619 6.19839C70.0826 6.19839 70.1033 6.19387 70.1221 6.18516C70.1384 6.17154 70.1522 6.15411 70.161 6.13429C70.1697 6.11447 70.1741 6.09285 70.1735 6.07103V4.46447C70.1747 4.43367 70.1666 4.40327 70.1497 4.3779C70.1321 4.35253 70.1077 4.33362 70.0789 4.324C69.5768 4.18915 69.0585 4.13002 68.5402 4.14842C66.8204 4.14842 65.9605 5.13167 65.9605 6.98405V7.38782H65.1006C65.0667 7.38782 65.0335 7.4017 65.0097 7.42642C64.9852 7.45115 64.9714 7.48459 64.9714 7.51951V9.15241C64.9714 9.18817 64.9846 9.22264 65.009 9.24879C65.0329 9.27487 65.0655 9.29062 65.1006 9.29288H65.9605V15.7717C65.9605 15.8067 65.9742 15.8402 65.9981 15.8648C66.0225 15.8896 66.0551 15.9034 66.0896 15.9034H67.9034C67.9385 15.9035 67.9723 15.8899 67.998 15.8654C68.0237 15.841 68.0388 15.8074 68.0413 15.7717V9.24898H69.7611L72.4091 15.7191C72.1083 16.4038 71.8074 16.5355 71.4032 16.5355C71.0466 16.5256 70.6981 16.4261 70.3885 16.2458C70.3709 16.2372 70.3521 16.2328 70.3327 16.2328C70.3133 16.2328 70.2945 16.2372 70.2769 16.2458C70.2594 16.2509 70.2437 16.2598 70.2305 16.272C70.2167 16.2842 70.2061 16.2992 70.1992 16.316L69.6232 17.7119C69.6107 17.7436 69.6101 17.779 69.6207 17.8113C69.632 17.8436 69.6539 17.8707 69.6834 17.8874C70.2844 18.2394 70.9682 18.4184 71.6608 18.4054C73.0196 18.4054 73.7761 17.7557 74.4467 16.0088L77.6538 7.54585C77.6645 7.52558 77.6701 7.50298 77.6701 7.48C77.6701 7.45709 77.6645 7.43449 77.6538 7.41416C77.6406 7.39712 77.6237 7.3835 77.6043 7.3744C77.5849 7.36523 77.5636 7.36084 77.5422 7.36149H75.5648C75.5373 7.36329 75.5109 7.37233 75.4884 7.38776C75.4658 7.40312 75.4476 7.42436 75.4357 7.44928L73.4665 13.1995L71.343 7.44928C71.3324 7.42313 71.3148 7.40073 71.2916 7.38511C71.2684 7.36943 71.2415 7.36123 71.2139 7.36149H68.0237Z" fill="black"/>
<path d="M63.9142 7.35345H62.0659C61.99 7.35345 61.928 7.41633 61.928 7.49392V15.7285C61.928 15.8061 61.99 15.869 62.0659 15.869H63.9142C63.9906 15.869 64.052 15.8061 64.052 15.7285V7.49392C64.052 7.41633 63.9906 7.35345 63.9142 7.35345Z" fill="black"/>
<path d="M62.994 3.59573C62.7301 3.59399 62.4713 3.67235 62.2513 3.82076C62.0307 3.96923 61.859 4.18115 61.7568 4.42961C61.6546 4.67814 61.6271 4.95197 61.6772 5.2165C61.728 5.48103 61.854 5.72433 62.0401 5.91553C62.2262 6.10667 62.4638 6.23713 62.722 6.29038C62.9809 6.34357 63.2491 6.31717 63.4935 6.21447C63.7374 6.1117 63.9461 5.93729 64.0927 5.71335C64.24 5.48942 64.3184 5.22599 64.3184 4.95648C64.319 4.77819 64.2858 4.60145 64.22 4.43639C64.1535 4.27133 64.0564 4.12131 63.9335 3.99479C63.8101 3.86833 63.664 3.76796 63.5029 3.69947C63.3412 3.63098 63.1689 3.59573 62.994 3.59573Z" fill="black"/>
<path d="M79.1933 9.99528C79.0222 9.99644 78.853 9.96294 78.695 9.89677C78.5371 9.83054 78.3936 9.73294 78.2726 9.60965C78.1516 9.48629 78.0564 9.33969 77.9912 9.17838C77.9266 9.017 77.894 8.84406 77.8953 8.66971C77.8953 8.31577 78.0326 7.97636 78.2776 7.72609C78.5227 7.47589 78.8555 7.3353 79.2021 7.3353C79.3726 7.33413 79.5418 7.36764 79.7003 7.4338C79.8583 7.50003 80.0018 7.59763 80.1228 7.72093C80.2431 7.84429 80.339 7.99088 80.4036 8.15226C80.4687 8.31358 80.5013 8.48651 80.5001 8.66093C80.5001 9.0148 80.3628 9.35422 80.1178 9.60449C79.8721 9.85469 79.5399 9.99528 79.1933 9.99528ZM79.1933 7.46698C78.9595 7.46524 78.7308 7.5345 78.5358 7.66599C78.3409 7.79749 78.1886 7.9852 78.0984 8.20532C78.0081 8.42544 77.9837 8.66803 78.0288 8.90216C78.0739 9.13623 78.1867 9.35138 78.3516 9.52011C78.517 9.68885 78.7276 9.80356 78.957 9.84965C79.1864 9.89581 79.424 9.87121 79.6396 9.7791C79.8552 9.68698 80.0388 9.53148 80.1679 9.3324C80.2964 9.13326 80.3641 8.89951 80.3628 8.66093C80.3641 8.50452 80.3346 8.34947 80.277 8.20468C80.2187 8.05989 80.1334 7.9282 80.0256 7.81717C79.9178 7.70621 79.7893 7.6181 79.6483 7.558C79.5067 7.4979 79.355 7.46698 79.2021 7.46698H79.1933ZM79.4854 8.80133L79.847 9.32807H79.5374L79.2102 8.84529H78.9269V9.32807H78.6599V7.93227H79.271C79.5888 7.93227 79.8038 8.09907 79.8038 8.37122C79.8056 8.46766 79.7762 8.5621 79.7204 8.63982C79.6646 8.71761 79.585 8.77435 79.4941 8.80133H79.4854ZM79.2622 8.1693H78.9269V8.60826H79.2622C79.434 8.60826 79.5374 8.52925 79.5374 8.38878C79.5374 8.24832 79.4427 8.1693 79.271 8.1693H79.2622Z" fill="black"/>
</svg>
