<svg width="63" height="68" viewBox="0 0 63 68" fill="none" xmlns="http://www.w3.org/2000/svg">
<path d="M62.1582 19.7408C62.578 20.2013 62.6322 20.8783 62.3072 21.42C62.0092 21.921 61.7519 22.3544 61.454 22.7606C58.3665 27.0398 56.6738 29.2742 53.6269 33.5804C52.8551 34.6637 50.9863 37.9815 50.2686 39.119C50.2551 39.1325 50.2551 39.146 50.2415 39.1596C49.5915 40.1346 47.9936 40.0669 47.479 38.9971C47.479 38.9971 47.479 38.9835 47.4655 38.9835C46.7072 37.3179 46.0978 35.5981 45.3936 33.9054C43.4572 29.2335 40.7624 25.1846 36.2801 22.5304C34.6551 21.569 34.628 20.8648 35.8874 19.47C36.3613 18.9554 36.8353 18.4273 37.3499 17.9669C42.3197 13.5387 45.7457 8.06792 48.3051 1.97417C48.4676 1.595 48.7926 1.29708 49.1447 0.999166C49.6051 0.62 50.2686 0.674167 50.6749 1.1075C51.0134 1.45958 51.3249 1.83875 51.5145 2.25854C51.9342 3.23354 52.0426 4.33042 52.2999 5.37312C53.6811 11.0471 56.7551 15.57 61.4269 19.0502C61.6842 19.2398 61.9144 19.4835 62.1582 19.7408ZM49.7134 6.145C48.1019 8.82625 46.7478 11.5887 44.9061 13.9992C43.0238 16.4502 40.6676 18.5356 38.5144 20.7971C43.9853 24.0742 47.154 29.2606 49.0634 35.6252C51.8665 29.8294 55.7394 25.2252 59.9915 20.919C53.2749 15.8002 51.6769 13.4846 49.7134 6.145Z" fill="black"/>
<path d="M11.0926 66.4733C9.86033 62.9796 8.79054 59.4181 7.43637 55.9785C6.10929 52.6473 4.13221 49.6817 1.28846 47.3931C0.245749 46.5535 0.272832 45.7952 1.12596 44.8473C5.91971 39.6337 9.60304 33.7296 12.2437 27.1619C12.528 26.4577 13.2864 25.3337 13.8145 25.3337C15.2499 24.9952 15.7645 27.7983 15.8187 28.0556C17.0239 34.664 21.1135 39.4712 25.7041 43.9671C27.1937 45.4296 27.3155 45.8765 25.853 47.2848C20.3416 52.566 16.6853 59.066 13.5437 65.9046C12.5551 68.2879 11.2416 66.8931 11.0926 66.4733ZM2.94054 45.7817C5.86554 47.6369 7.802 50.115 9.21033 52.9181C10.578 55.6671 11.5801 58.5785 12.7176 61.3681C15.3447 55.491 18.8926 50.0608 24.2822 45.9306C19.0687 41.8275 14.952 37.1421 13.6926 30.4254C11.4312 36.465 7.84262 41.489 2.94054 45.7817Z" fill="#81ADC8"/>
<path d="M48.1021 51.9024C45.1094 55.9243 43.2812 60.5149 41.6021 65.1868C41.4937 65.4847 41.1417 67.1774 39.8552 67.1639C39.4896 67.1639 38.8802 66.5816 38.65 66.1212C37.6344 64.0493 36.9979 61.7337 35.7114 59.8649C34.1948 57.6441 32.1094 55.8159 30.3489 53.7712C30.0916 53.4732 29.9969 52.7962 30.1594 52.4305C30.4708 51.7534 31.026 51.2118 31.4594 50.5889C33.6666 47.3389 35.8333 44.0618 38.1083 40.8659C38.5823 40.2024 39.5167 39.4034 40.0719 39.4034C41.4531 39.3899 41.7239 40.4732 41.9677 41.2451C43.0781 44.793 44.9875 47.7587 47.7635 50.2097C48.7521 51.1305 48.2239 51.7399 48.1021 51.9024ZM32.8948 52.8368C36.1177 55.1253 38.3114 58.4295 39.6385 62.1264C41.6021 58.5243 43.6062 54.8545 45.6646 51.0628C42.9021 49.1534 40.9792 45.592 40.0989 42.9649C37.6885 46.2691 35.3052 49.5326 32.8948 52.8368Z" fill="#CD4631"/>
</svg>
